<mxfile host="app.diagrams.net" modified="2021-05-24T09:27:14.424Z" agent="5.0 (X11; Linux x86_64) AppleWebKit/537.36 (KHTML, like Gecko) Chrome/90.0.4430.212 Safari/537.36" etag="OnfYulsfqjlOjD1v0GOq" version="14.6.13" type="github">
  <diagram id="MjMGqF-46WkJ2qRBwPvp" name="Page-1">
    <mxGraphModel dx="1350" dy="774" grid="1" gridSize="10" guides="1" tooltips="1" connect="1" arrows="1" fold="1" page="1" pageScale="1" pageWidth="827" pageHeight="1169" math="0" shadow="0">
      <root>
        <mxCell id="0" />
        <mxCell id="1" parent="0" />
        <mxCell id="24lAhe8oEmpY3K6IrWR_-10" value="" style="rounded=1;whiteSpace=wrap;html=1;dashed=1;" vertex="1" parent="1">
          <mxGeometry x="250" y="270" width="280" height="190" as="geometry" />
        </mxCell>
        <mxCell id="24lAhe8oEmpY3K6IrWR_-2" value="UI" style="rounded=1;whiteSpace=wrap;html=1;" vertex="1" parent="1">
          <mxGeometry x="334" y="70" width="80" height="140" as="geometry" />
        </mxCell>
        <mxCell id="24lAhe8oEmpY3K6IrWR_-5" value="FPA API Server" style="rounded=1;whiteSpace=wrap;html=1;" vertex="1" parent="1">
          <mxGeometry x="314" y="310" width="120" height="60" as="geometry" />
        </mxCell>
        <mxCell id="24lAhe8oEmpY3K6IrWR_-6" value="Platform API Client" style="rounded=1;whiteSpace=wrap;html=1;" vertex="1" parent="1">
          <mxGeometry x="314" y="390" width="120" height="60" as="geometry" />
        </mxCell>
        <mxCell id="24lAhe8oEmpY3K6IrWR_-8" value="Platform API Server" style="rounded=1;whiteSpace=wrap;html=1;" vertex="1" parent="1">
          <mxGeometry x="314" y="470" width="120" height="60" as="geometry" />
        </mxCell>
        <mxCell id="24lAhe8oEmpY3K6IrWR_-9" value="FPA API Client" style="rounded=1;whiteSpace=wrap;html=1;" vertex="1" parent="1">
          <mxGeometry x="314" y="230" width="120" height="60" as="geometry" />
        </mxCell>
        <mxCell id="24lAhe8oEmpY3K6IrWR_-12" value="DB" style="shape=cylinder3;whiteSpace=wrap;html=1;boundedLbl=1;backgroundOutline=1;size=15;" vertex="1" parent="1">
          <mxGeometry x="336" y="550" width="76" height="80" as="geometry" />
        </mxCell>
        <mxCell id="24lAhe8oEmpY3K6IrWR_-13" value="" style="shape=cylinder3;whiteSpace=wrap;html=1;boundedLbl=1;backgroundOutline=1;size=15;" vertex="1" parent="1">
          <mxGeometry x="280" y="310" width="40" height="60" as="geometry" />
        </mxCell>
        <mxCell id="24lAhe8oEmpY3K6IrWR_-14" value="Shared Library" style="text;html=1;strokeColor=none;fillColor=none;align=center;verticalAlign=middle;whiteSpace=wrap;rounded=0;" vertex="1" parent="1">
          <mxGeometry x="470" y="280" width="40" height="20" as="geometry" />
        </mxCell>
        <mxCell id="24lAhe8oEmpY3K6IrWR_-15" value="" style="endArrow=classic;startArrow=classic;html=1;exitX=0.5;exitY=0;exitDx=0;exitDy=0;entryX=0.5;entryY=1;entryDx=0;entryDy=0;" edge="1" parent="1" source="24lAhe8oEmpY3K6IrWR_-9" target="24lAhe8oEmpY3K6IrWR_-2">
          <mxGeometry width="50" height="50" relative="1" as="geometry">
            <mxPoint x="370" y="230" as="sourcePoint" />
            <mxPoint x="370" y="210" as="targetPoint" />
          </mxGeometry>
        </mxCell>
        <mxCell id="24lAhe8oEmpY3K6IrWR_-20" value="" style="endArrow=classic;startArrow=classic;html=1;entryX=0.5;entryY=0;entryDx=0;entryDy=0;exitX=0.5;exitY=1;exitDx=0;exitDy=0;exitPerimeter=0;" edge="1" parent="1" source="24lAhe8oEmpY3K6IrWR_-9" target="24lAhe8oEmpY3K6IrWR_-5">
          <mxGeometry width="50" height="50" relative="1" as="geometry">
            <mxPoint x="380" y="240" as="sourcePoint" />
            <mxPoint x="380" y="300" as="targetPoint" />
          </mxGeometry>
        </mxCell>
        <mxCell id="24lAhe8oEmpY3K6IrWR_-22" value="" style="endArrow=classic;startArrow=classic;html=1;entryX=0.5;entryY=1;entryDx=0;entryDy=0;" edge="1" parent="1" target="24lAhe8oEmpY3K6IrWR_-5">
          <mxGeometry width="50" height="50" relative="1" as="geometry">
            <mxPoint x="374" y="390" as="sourcePoint" />
            <mxPoint x="440" y="390" as="targetPoint" />
            <Array as="points" />
          </mxGeometry>
        </mxCell>
        <mxCell id="24lAhe8oEmpY3K6IrWR_-23" value="" style="endArrow=classic;startArrow=classic;html=1;exitX=0.5;exitY=0;exitDx=0;exitDy=0;exitPerimeter=0;entryX=0.5;entryY=1;entryDx=0;entryDy=0;" edge="1" parent="1" source="24lAhe8oEmpY3K6IrWR_-12" target="24lAhe8oEmpY3K6IrWR_-8">
          <mxGeometry width="50" height="50" relative="1" as="geometry">
            <mxPoint x="390" y="550" as="sourcePoint" />
            <mxPoint x="440" y="500" as="targetPoint" />
          </mxGeometry>
        </mxCell>
        <mxCell id="24lAhe8oEmpY3K6IrWR_-24" value="" style="endArrow=classic;startArrow=classic;html=1;exitX=0.5;exitY=0;exitDx=0;exitDy=0;entryX=0.5;entryY=1;entryDx=0;entryDy=0;" edge="1" parent="1" source="24lAhe8oEmpY3K6IrWR_-8" target="24lAhe8oEmpY3K6IrWR_-6">
          <mxGeometry width="50" height="50" relative="1" as="geometry">
            <mxPoint x="390" y="550" as="sourcePoint" />
            <mxPoint x="440" y="500" as="targetPoint" />
          </mxGeometry>
        </mxCell>
      </root>
    </mxGraphModel>
  </diagram>
</mxfile>
